<mxfile host="app.diagrams.net" agent="Mozilla/5.0 (Windows NT 10.0; Win64; x64) AppleWebKit/537.36 (KHTML, like Gecko) Chrome/131.0.0.0 Safari/537.36" version="24.8.8">
  <diagram name="Сторінка-1" id="9aHnaZNlf9F1V1IQI-s_">
    <mxGraphModel grid="1" page="1" gridSize="10" guides="1" tooltips="1" connect="1" arrows="1" fold="1" pageScale="1" pageWidth="827" pageHeight="1169" math="0" shadow="0">
      <root>
        <mxCell id="0" />
        <mxCell id="1" parent="0" />
        <mxCell id="xigkv-UsZdPnQR3w_R_4-2" value="" style="edgeStyle=orthogonalEdgeStyle;rounded=0;orthogonalLoop=1;jettySize=auto;html=1;" edge="1" parent="1" source="iwuZNw0JvAA64kbivm5g-1" target="xigkv-UsZdPnQR3w_R_4-1">
          <mxGeometry relative="1" as="geometry" />
        </mxCell>
        <mxCell id="iwuZNw0JvAA64kbivm5g-1" value="&lt;font style=&quot;font-size: 18px;&quot;&gt;Start&lt;/font&gt;" style="ellipse;whiteSpace=wrap;html=1;" vertex="1" parent="1">
          <mxGeometry x="110" y="50" width="120" height="80" as="geometry" />
        </mxCell>
        <mxCell id="xigkv-UsZdPnQR3w_R_4-4" value="" style="edgeStyle=orthogonalEdgeStyle;rounded=0;orthogonalLoop=1;jettySize=auto;html=1;" edge="1" parent="1" source="xigkv-UsZdPnQR3w_R_4-1" target="xigkv-UsZdPnQR3w_R_4-3">
          <mxGeometry relative="1" as="geometry" />
        </mxCell>
        <mxCell id="xigkv-UsZdPnQR3w_R_4-1" value="&lt;div style=&quot;font-family: Consolas, &amp;quot;Courier New&amp;quot;, monospace; font-size: 14px; line-height: 19px; white-space: pre;&quot;&gt;&lt;font style=&quot;&quot; color=&quot;#030303&quot;&gt;&amp;nbsp;string s&lt;/font&gt;&lt;/div&gt;" style="rounded=0;whiteSpace=wrap;html=1;" vertex="1" parent="1">
          <mxGeometry x="110" y="180" width="120" height="60" as="geometry" />
        </mxCell>
        <mxCell id="xigkv-UsZdPnQR3w_R_4-6" value="" style="edgeStyle=orthogonalEdgeStyle;rounded=0;orthogonalLoop=1;jettySize=auto;html=1;" edge="1" parent="1" source="xigkv-UsZdPnQR3w_R_4-3" target="xigkv-UsZdPnQR3w_R_4-5">
          <mxGeometry relative="1" as="geometry" />
        </mxCell>
        <mxCell id="xigkv-UsZdPnQR3w_R_4-3" value="&lt;font style=&quot;font-size: 14px;&quot;&gt;Введення&lt;br&gt;&amp;nbsp;рядка&lt;/font&gt;" style="shape=parallelogram;perimeter=parallelogramPerimeter;whiteSpace=wrap;html=1;fixedSize=1;" vertex="1" parent="1">
          <mxGeometry x="110" y="290" width="120" height="60" as="geometry" />
        </mxCell>
        <mxCell id="xigkv-UsZdPnQR3w_R_4-8" value="" style="edgeStyle=orthogonalEdgeStyle;rounded=0;orthogonalLoop=1;jettySize=auto;html=1;" edge="1" parent="1" source="xigkv-UsZdPnQR3w_R_4-5" target="xigkv-UsZdPnQR3w_R_4-7">
          <mxGeometry relative="1" as="geometry" />
        </mxCell>
        <mxCell id="xigkv-UsZdPnQR3w_R_4-5" value="&lt;div style=&quot;font-family: Consolas, &amp;quot;Courier New&amp;quot;, monospace; font-size: 14px; line-height: 19px; white-space: pre;&quot;&gt;int x = 0,&lt;/div&gt;&lt;div style=&quot;font-family: Consolas, &amp;quot;Courier New&amp;quot;, monospace; font-size: 14px; line-height: 19px; white-space: pre;&quot;&gt; y = 0;&lt;br/&gt;(Початкові коорд.)&lt;/div&gt;" style="rounded=0;whiteSpace=wrap;html=1;" vertex="1" parent="1">
          <mxGeometry x="90" y="390" width="160" height="60" as="geometry" />
        </mxCell>
        <mxCell id="xigkv-UsZdPnQR3w_R_4-11" value="" style="edgeStyle=orthogonalEdgeStyle;rounded=0;orthogonalLoop=1;jettySize=auto;html=1;" edge="1" parent="1" source="xigkv-UsZdPnQR3w_R_4-7" target="xigkv-UsZdPnQR3w_R_4-10">
          <mxGeometry relative="1" as="geometry" />
        </mxCell>
        <mxCell id="xigkv-UsZdPnQR3w_R_4-7" value="&lt;div style=&quot;font-family: Consolas, &amp;quot;Courier New&amp;quot;, monospace; font-size: 14px; line-height: 19px; white-space: pre;&quot;&gt;&lt;div style=&quot;&quot;&gt;&lt;span style=&quot;background-color: initial;&quot;&gt;Оголошення змінної visited, яка є&lt;/span&gt;&lt;/div&gt;&lt;div style=&quot;&quot;&gt;&lt;span style=&quot;background-color: initial;&quot;&gt; парою чисел&lt;/span&gt;&lt;/div&gt;&lt;div style=&quot;&quot;&gt;&lt;span style=&quot;background-color: initial;&quot;&gt;(коорд.) &lt;/span&gt;&lt;/div&gt;&lt;/div&gt;" style="rounded=0;whiteSpace=wrap;html=1;" vertex="1" parent="1">
          <mxGeometry x="45" y="490" width="250" height="60" as="geometry" />
        </mxCell>
        <mxCell id="xigkv-UsZdPnQR3w_R_4-14" value="" style="edgeStyle=orthogonalEdgeStyle;rounded=0;orthogonalLoop=1;jettySize=auto;html=1;" edge="1" parent="1" source="xigkv-UsZdPnQR3w_R_4-9" target="xigkv-UsZdPnQR3w_R_4-13">
          <mxGeometry relative="1" as="geometry" />
        </mxCell>
        <mxCell id="xigkv-UsZdPnQR3w_R_4-62" value="" style="edgeStyle=orthogonalEdgeStyle;rounded=0;orthogonalLoop=1;jettySize=auto;html=1;" edge="1" parent="1" source="xigkv-UsZdPnQR3w_R_4-9" target="xigkv-UsZdPnQR3w_R_4-59">
          <mxGeometry relative="1" as="geometry" />
        </mxCell>
        <mxCell id="xigkv-UsZdPnQR3w_R_4-9" value="&lt;font style=&quot;font-size: 14px;&quot;&gt;char move: s&lt;/font&gt;" style="shape=hexagon;perimeter=hexagonPerimeter2;whiteSpace=wrap;html=1;fixedSize=1;" vertex="1" parent="1">
          <mxGeometry x="115" y="710" width="110" height="50" as="geometry" />
        </mxCell>
        <mxCell id="xigkv-UsZdPnQR3w_R_4-12" value="" style="edgeStyle=orthogonalEdgeStyle;rounded=0;orthogonalLoop=1;jettySize=auto;html=1;" edge="1" parent="1" source="xigkv-UsZdPnQR3w_R_4-10" target="xigkv-UsZdPnQR3w_R_4-9">
          <mxGeometry relative="1" as="geometry" />
        </mxCell>
        <mxCell id="xigkv-UsZdPnQR3w_R_4-10" value="&lt;font style=&quot;font-size: 14px;&quot;&gt;Додавання пари до змінної visited&lt;/font&gt;" style="rounded=0;whiteSpace=wrap;html=1;" vertex="1" parent="1">
          <mxGeometry x="110" y="590" width="120" height="60" as="geometry" />
        </mxCell>
        <mxCell id="xigkv-UsZdPnQR3w_R_4-16" value="" style="edgeStyle=orthogonalEdgeStyle;rounded=0;orthogonalLoop=1;jettySize=auto;html=1;" edge="1" parent="1" source="xigkv-UsZdPnQR3w_R_4-13" target="xigkv-UsZdPnQR3w_R_4-15">
          <mxGeometry relative="1" as="geometry" />
        </mxCell>
        <mxCell id="xigkv-UsZdPnQR3w_R_4-26" value="" style="edgeStyle=orthogonalEdgeStyle;rounded=0;orthogonalLoop=1;jettySize=auto;html=1;" edge="1" parent="1" source="xigkv-UsZdPnQR3w_R_4-13" target="xigkv-UsZdPnQR3w_R_4-17">
          <mxGeometry relative="1" as="geometry" />
        </mxCell>
        <mxCell id="xigkv-UsZdPnQR3w_R_4-13" value="move == N ?" style="rhombus;whiteSpace=wrap;html=1;" vertex="1" parent="1">
          <mxGeometry x="130" y="800" width="80" height="80" as="geometry" />
        </mxCell>
        <mxCell id="xigkv-UsZdPnQR3w_R_4-15" value="&lt;font style=&quot;font-size: 14px;&quot;&gt;y++&lt;/font&gt;" style="rounded=0;whiteSpace=wrap;html=1;" vertex="1" parent="1">
          <mxGeometry x="250" y="822.5" width="70" height="35" as="geometry" />
        </mxCell>
        <mxCell id="xigkv-UsZdPnQR3w_R_4-19" value="" style="edgeStyle=orthogonalEdgeStyle;rounded=0;orthogonalLoop=1;jettySize=auto;html=1;" edge="1" parent="1" source="xigkv-UsZdPnQR3w_R_4-17" target="xigkv-UsZdPnQR3w_R_4-18">
          <mxGeometry relative="1" as="geometry" />
        </mxCell>
        <mxCell id="xigkv-UsZdPnQR3w_R_4-27" value="" style="edgeStyle=orthogonalEdgeStyle;rounded=0;orthogonalLoop=1;jettySize=auto;html=1;" edge="1" parent="1" source="xigkv-UsZdPnQR3w_R_4-17" target="xigkv-UsZdPnQR3w_R_4-20">
          <mxGeometry relative="1" as="geometry" />
        </mxCell>
        <mxCell id="xigkv-UsZdPnQR3w_R_4-17" value="move == S ?" style="rhombus;whiteSpace=wrap;html=1;" vertex="1" parent="1">
          <mxGeometry x="130" y="900" width="80" height="80" as="geometry" />
        </mxCell>
        <mxCell id="xigkv-UsZdPnQR3w_R_4-18" value="&lt;font style=&quot;font-size: 14px;&quot;&gt;y--&lt;/font&gt;" style="rounded=0;whiteSpace=wrap;html=1;" vertex="1" parent="1">
          <mxGeometry x="250" y="922.5" width="70" height="35" as="geometry" />
        </mxCell>
        <mxCell id="xigkv-UsZdPnQR3w_R_4-22" value="" style="edgeStyle=orthogonalEdgeStyle;rounded=0;orthogonalLoop=1;jettySize=auto;html=1;" edge="1" parent="1" source="xigkv-UsZdPnQR3w_R_4-20" target="xigkv-UsZdPnQR3w_R_4-21">
          <mxGeometry relative="1" as="geometry" />
        </mxCell>
        <mxCell id="xigkv-UsZdPnQR3w_R_4-28" value="" style="edgeStyle=orthogonalEdgeStyle;rounded=0;orthogonalLoop=1;jettySize=auto;html=1;" edge="1" parent="1" source="xigkv-UsZdPnQR3w_R_4-20" target="xigkv-UsZdPnQR3w_R_4-23">
          <mxGeometry relative="1" as="geometry" />
        </mxCell>
        <mxCell id="xigkv-UsZdPnQR3w_R_4-20" value="move == E ?" style="rhombus;whiteSpace=wrap;html=1;" vertex="1" parent="1">
          <mxGeometry x="130" y="1000" width="80" height="80" as="geometry" />
        </mxCell>
        <mxCell id="xigkv-UsZdPnQR3w_R_4-21" value="&lt;font style=&quot;font-size: 14px;&quot;&gt;x++&lt;/font&gt;" style="rounded=0;whiteSpace=wrap;html=1;" vertex="1" parent="1">
          <mxGeometry x="250" y="1022.5" width="70" height="35" as="geometry" />
        </mxCell>
        <mxCell id="xigkv-UsZdPnQR3w_R_4-25" value="" style="edgeStyle=orthogonalEdgeStyle;rounded=0;orthogonalLoop=1;jettySize=auto;html=1;" edge="1" parent="1" source="xigkv-UsZdPnQR3w_R_4-23" target="xigkv-UsZdPnQR3w_R_4-24">
          <mxGeometry relative="1" as="geometry" />
        </mxCell>
        <mxCell id="xigkv-UsZdPnQR3w_R_4-23" value="move == W ?" style="rhombus;whiteSpace=wrap;html=1;" vertex="1" parent="1">
          <mxGeometry x="130" y="1100" width="80" height="80" as="geometry" />
        </mxCell>
        <mxCell id="xigkv-UsZdPnQR3w_R_4-24" value="&lt;font style=&quot;font-size: 14px;&quot;&gt;x--&lt;/font&gt;" style="rounded=0;whiteSpace=wrap;html=1;" vertex="1" parent="1">
          <mxGeometry x="250" y="1122.5" width="70" height="35" as="geometry" />
        </mxCell>
        <mxCell id="xigkv-UsZdPnQR3w_R_4-29" value="&lt;font style=&quot;font-size: 14px;&quot;&gt;YES&lt;/font&gt;" style="text;strokeColor=none;align=center;fillColor=none;html=1;verticalAlign=middle;whiteSpace=wrap;rounded=0;" vertex="1" parent="1">
          <mxGeometry x="200" y="810" width="60" height="30" as="geometry" />
        </mxCell>
        <mxCell id="xigkv-UsZdPnQR3w_R_4-30" value="&lt;font style=&quot;font-size: 14px;&quot;&gt;YES&lt;/font&gt;" style="text;strokeColor=none;align=center;fillColor=none;html=1;verticalAlign=middle;whiteSpace=wrap;rounded=0;" vertex="1" parent="1">
          <mxGeometry x="200" y="910" width="60" height="30" as="geometry" />
        </mxCell>
        <mxCell id="xigkv-UsZdPnQR3w_R_4-31" value="&lt;font style=&quot;font-size: 14px;&quot;&gt;YES&lt;/font&gt;" style="text;strokeColor=none;align=center;fillColor=none;html=1;verticalAlign=middle;whiteSpace=wrap;rounded=0;" vertex="1" parent="1">
          <mxGeometry x="200" y="1010" width="60" height="30" as="geometry" />
        </mxCell>
        <mxCell id="xigkv-UsZdPnQR3w_R_4-32" value="&lt;font style=&quot;font-size: 14px;&quot;&gt;YES&lt;/font&gt;" style="text;strokeColor=none;align=center;fillColor=none;html=1;verticalAlign=middle;whiteSpace=wrap;rounded=0;" vertex="1" parent="1">
          <mxGeometry x="200" y="1110" width="60" height="30" as="geometry" />
        </mxCell>
        <mxCell id="xigkv-UsZdPnQR3w_R_4-33" value="&lt;font style=&quot;font-size: 14px;&quot;&gt;NO&lt;/font&gt;" style="text;strokeColor=none;align=center;fillColor=none;html=1;verticalAlign=middle;whiteSpace=wrap;rounded=0;" vertex="1" parent="1">
          <mxGeometry x="115" y="870" width="60" height="30" as="geometry" />
        </mxCell>
        <mxCell id="xigkv-UsZdPnQR3w_R_4-34" value="&lt;font style=&quot;font-size: 14px;&quot;&gt;NO&lt;/font&gt;" style="text;strokeColor=none;align=center;fillColor=none;html=1;verticalAlign=middle;whiteSpace=wrap;rounded=0;" vertex="1" parent="1">
          <mxGeometry x="110" y="980" width="60" height="30" as="geometry" />
        </mxCell>
        <mxCell id="xigkv-UsZdPnQR3w_R_4-35" value="&lt;font style=&quot;font-size: 14px;&quot;&gt;NO&lt;/font&gt;" style="text;strokeColor=none;align=center;fillColor=none;html=1;verticalAlign=middle;whiteSpace=wrap;rounded=0;" vertex="1" parent="1">
          <mxGeometry x="115" y="1080" width="60" height="30" as="geometry" />
        </mxCell>
        <mxCell id="xigkv-UsZdPnQR3w_R_4-38" value="" style="edgeStyle=orthogonalEdgeStyle;rounded=0;orthogonalLoop=1;jettySize=auto;html=1;" edge="1" parent="1" source="xigkv-UsZdPnQR3w_R_4-36" target="xigkv-UsZdPnQR3w_R_4-37">
          <mxGeometry relative="1" as="geometry" />
        </mxCell>
        <mxCell id="xigkv-UsZdPnQR3w_R_4-48" value="" style="edgeStyle=orthogonalEdgeStyle;rounded=0;orthogonalLoop=1;jettySize=auto;html=1;" edge="1" parent="1" source="xigkv-UsZdPnQR3w_R_4-36" target="xigkv-UsZdPnQR3w_R_4-47">
          <mxGeometry relative="1" as="geometry" />
        </mxCell>
        <mxCell id="xigkv-UsZdPnQR3w_R_4-36" value="&lt;font style=&quot;font-size: 14px;&quot;&gt;Коорд. повторювалися ?&lt;/font&gt;" style="rhombus;whiteSpace=wrap;html=1;" vertex="1" parent="1">
          <mxGeometry x="400" y="990" width="110" height="100" as="geometry" />
        </mxCell>
        <mxCell id="xigkv-UsZdPnQR3w_R_4-40" value="" style="edgeStyle=orthogonalEdgeStyle;rounded=0;orthogonalLoop=1;jettySize=auto;html=1;" edge="1" parent="1" source="xigkv-UsZdPnQR3w_R_4-37" target="xigkv-UsZdPnQR3w_R_4-39">
          <mxGeometry relative="1" as="geometry" />
        </mxCell>
        <mxCell id="xigkv-UsZdPnQR3w_R_4-37" value="&lt;font style=&quot;font-size: 14px;&quot;&gt;Something &lt;br&gt;went wrong...&lt;/font&gt;" style="shape=parallelogram;perimeter=parallelogramPerimeter;whiteSpace=wrap;html=1;fixedSize=1;" vertex="1" parent="1">
          <mxGeometry x="560" y="1010" width="120" height="60" as="geometry" />
        </mxCell>
        <mxCell id="xigkv-UsZdPnQR3w_R_4-39" value="&lt;font style=&quot;font-size: 14px;&quot;&gt;return 0&lt;/font&gt;" style="ellipse;whiteSpace=wrap;html=1;" vertex="1" parent="1">
          <mxGeometry x="720" y="1005" width="100" height="70" as="geometry" />
        </mxCell>
        <mxCell id="xigkv-UsZdPnQR3w_R_4-41" value="&lt;font style=&quot;font-size: 14px;&quot;&gt;YES&lt;/font&gt;" style="text;strokeColor=none;align=center;fillColor=none;html=1;verticalAlign=middle;whiteSpace=wrap;rounded=0;" vertex="1" parent="1">
          <mxGeometry x="500" y="1010" width="60" height="30" as="geometry" />
        </mxCell>
        <mxCell id="xigkv-UsZdPnQR3w_R_4-42" value="" style="endArrow=none;html=1;rounded=0;" edge="1" parent="1">
          <mxGeometry width="50" height="50" relative="1" as="geometry">
            <mxPoint x="320" y="1140" as="sourcePoint" />
            <mxPoint x="360" y="1140" as="targetPoint" />
          </mxGeometry>
        </mxCell>
        <mxCell id="xigkv-UsZdPnQR3w_R_4-43" value="" style="endArrow=none;html=1;rounded=0;" edge="1" parent="1">
          <mxGeometry width="50" height="50" relative="1" as="geometry">
            <mxPoint x="320" y="1040" as="sourcePoint" />
            <mxPoint x="360" y="1040" as="targetPoint" />
          </mxGeometry>
        </mxCell>
        <mxCell id="xigkv-UsZdPnQR3w_R_4-44" value="" style="endArrow=none;html=1;rounded=0;" edge="1" parent="1">
          <mxGeometry width="50" height="50" relative="1" as="geometry">
            <mxPoint x="320" y="940" as="sourcePoint" />
            <mxPoint x="360" y="940" as="targetPoint" />
          </mxGeometry>
        </mxCell>
        <mxCell id="xigkv-UsZdPnQR3w_R_4-45" value="" style="endArrow=none;html=1;rounded=0;" edge="1" parent="1">
          <mxGeometry width="50" height="50" relative="1" as="geometry">
            <mxPoint x="360" y="1140" as="sourcePoint" />
            <mxPoint x="360" y="840" as="targetPoint" />
          </mxGeometry>
        </mxCell>
        <mxCell id="xigkv-UsZdPnQR3w_R_4-46" value="" style="endArrow=classic;html=1;rounded=0;entryX=0;entryY=0.5;entryDx=0;entryDy=0;" edge="1" parent="1" target="xigkv-UsZdPnQR3w_R_4-36">
          <mxGeometry width="50" height="50" relative="1" as="geometry">
            <mxPoint x="360" y="1040" as="sourcePoint" />
            <mxPoint x="430" y="970" as="targetPoint" />
          </mxGeometry>
        </mxCell>
        <mxCell id="xigkv-UsZdPnQR3w_R_4-47" value="&lt;font style=&quot;font-size: 14px;&quot;&gt;Додаємо пару до visited&lt;/font&gt;" style="rounded=0;whiteSpace=wrap;html=1;" vertex="1" parent="1">
          <mxGeometry x="390" y="1140" width="120" height="60" as="geometry" />
        </mxCell>
        <mxCell id="xigkv-UsZdPnQR3w_R_4-49" value="&lt;font style=&quot;font-size: 14px;&quot;&gt;NO&lt;/font&gt;" style="text;strokeColor=none;align=center;fillColor=none;html=1;verticalAlign=middle;whiteSpace=wrap;rounded=0;" vertex="1" parent="1">
          <mxGeometry x="450" y="1100" width="60" height="30" as="geometry" />
        </mxCell>
        <mxCell id="xigkv-UsZdPnQR3w_R_4-53" value="" style="endArrow=none;html=1;rounded=0;" edge="1" parent="1">
          <mxGeometry width="50" height="50" relative="1" as="geometry">
            <mxPoint x="320" y="840" as="sourcePoint" />
            <mxPoint x="360" y="840" as="targetPoint" />
          </mxGeometry>
        </mxCell>
        <mxCell id="xigkv-UsZdPnQR3w_R_4-54" value="" style="endArrow=none;html=1;rounded=0;" edge="1" parent="1">
          <mxGeometry width="50" height="50" relative="1" as="geometry">
            <mxPoint x="450" y="1240" as="sourcePoint" />
            <mxPoint x="450" y="1200" as="targetPoint" />
          </mxGeometry>
        </mxCell>
        <mxCell id="xigkv-UsZdPnQR3w_R_4-55" value="" style="endArrow=none;html=1;rounded=0;" edge="1" parent="1">
          <mxGeometry width="50" height="50" relative="1" as="geometry">
            <mxPoint x="70" y="1240" as="sourcePoint" />
            <mxPoint x="450" y="1240" as="targetPoint" />
          </mxGeometry>
        </mxCell>
        <mxCell id="xigkv-UsZdPnQR3w_R_4-56" value="" style="endArrow=none;html=1;rounded=0;" edge="1" parent="1">
          <mxGeometry width="50" height="50" relative="1" as="geometry">
            <mxPoint x="70" y="1240" as="sourcePoint" />
            <mxPoint x="70" y="730" as="targetPoint" />
          </mxGeometry>
        </mxCell>
        <mxCell id="xigkv-UsZdPnQR3w_R_4-57" value="" style="endArrow=classic;html=1;rounded=0;entryX=0.012;entryY=0.409;entryDx=0;entryDy=0;entryPerimeter=0;" edge="1" parent="1" target="xigkv-UsZdPnQR3w_R_4-9">
          <mxGeometry width="50" height="50" relative="1" as="geometry">
            <mxPoint x="70" y="730" as="sourcePoint" />
            <mxPoint x="110" y="735" as="targetPoint" />
          </mxGeometry>
        </mxCell>
        <mxCell id="xigkv-UsZdPnQR3w_R_4-64" value="" style="edgeStyle=orthogonalEdgeStyle;rounded=0;orthogonalLoop=1;jettySize=auto;html=1;" edge="1" parent="1" source="xigkv-UsZdPnQR3w_R_4-59" target="xigkv-UsZdPnQR3w_R_4-63">
          <mxGeometry relative="1" as="geometry" />
        </mxCell>
        <mxCell id="xigkv-UsZdPnQR3w_R_4-59" value="Looks Ok" style="shape=parallelogram;perimeter=parallelogramPerimeter;whiteSpace=wrap;html=1;fixedSize=1;" vertex="1" parent="1">
          <mxGeometry x="270" y="705" width="120" height="60" as="geometry" />
        </mxCell>
        <mxCell id="xigkv-UsZdPnQR3w_R_4-63" value="&lt;font style=&quot;font-size: 18px;&quot;&gt;End&lt;/font&gt;" style="ellipse;whiteSpace=wrap;html=1;" vertex="1" parent="1">
          <mxGeometry x="450" y="695" width="120" height="80" as="geometry" />
        </mxCell>
        <mxCell id="xigkv-UsZdPnQR3w_R_4-65" value="&lt;font style=&quot;font-size: 14px;&quot;&gt;YES&lt;/font&gt;" style="text;strokeColor=none;align=center;fillColor=none;html=1;verticalAlign=middle;whiteSpace=wrap;rounded=0;" vertex="1" parent="1">
          <mxGeometry x="70" y="705" width="60" height="30" as="geometry" />
        </mxCell>
        <mxCell id="xigkv-UsZdPnQR3w_R_4-66" value="&lt;font style=&quot;font-size: 14px;&quot;&gt;NO&lt;/font&gt;" style="text;strokeColor=none;align=center;fillColor=none;html=1;verticalAlign=middle;whiteSpace=wrap;rounded=0;" vertex="1" parent="1">
          <mxGeometry x="210" y="710" width="60" height="30" as="geometry" />
        </mxCell>
      </root>
    </mxGraphModel>
  </diagram>
</mxfile>
